<svg fill="#000000" xmlns="http://www.w3.org/2000/svg"  viewBox="0 0 24 24" width="24px" height="24px">
<path d="M12,1C5.925,1 1,5.925 1,12C1,18.075 5.925,23 12,23C18.075,23 23,18.075 23,12C23,5.925 18.075,1 12,1ZM16.707,15.293C17.098,15.684 17.098,16.316 16.707,16.707C16.512,16.902 16.256,17 16,17C15.744,17 15.488,16.902 15.293,16.707L12,13.414L8.707,16.707C8.512,16.902 8.256,17 8,17C7.744,17 7.488,16.902 7.293,16.707C6.902,16.316 6.902,15.684 7.293,15.293L10.586,12L7.293,8.707C6.902,8.316 6.902,7.684 7.293,7.293C7.684,6.902 8.316,6.902 8.707,7.293L12,10.586L15.293,7.293C15.684,6.902 16.316,6.902 16.707,7.293C17.098,7.684 17.098,8.316 16.707,8.707L13.414,12L16.707,15.293Z"/></svg>